HIERARCHY
ROOT hip
{
	OFFSET 0.000000 0.000000 0.000000 
	CHANNELS 6 Xposition Yposition Zposition Xrotation Zrotation Yrotation
	JOINT abdomen
	{
		OFFSET 0.000000 3.402643 0.000000 
		CHANNELS 3 Xrotation Zrotation Yrotation
		JOINT chest
		{
			OFFSET 0.000000 8.438565 -0.680529 
			CHANNELS 3 Xrotation Zrotation Yrotation
			JOINT neck
			{
				OFFSET 0.000000 10.207942 -0.272212 
				CHANNELS 3 Xrotation Zrotation Yrotation
				JOINT head
				{
					OFFSET 0.000000 3.130431 0.000000 
					CHANNELS 3 Xrotation Zrotation Yrotation
					End Site
					{
						OFFSET 0.000000 3.130435 0.000000 
					}
				}
			}
			JOINT lCollar
			{
				OFFSET 3.470700 6.669187 -0.816635 
				CHANNELS 3 Yrotation Zrotation Xrotation
				JOINT lShldr
				{
					OFFSET 3.198488 0.000000 0.000000 
					CHANNELS 3 Zrotation Yrotation Xrotation
					JOINT lForeArm
					{
						OFFSET 10.139888 0.000000 0.000000 
						CHANNELS 3 Yrotation Zrotation Xrotation
						JOINT lHand
						{
							OFFSET 8.370511 0.000000 0.000000 
							CHANNELS 3 Zrotation Yrotation Xrotation
							End Site
							{
								OFFSET 4.083176 0.000000 0.000000 
							}
						}
					}
				}
			}
			JOINT rCollar
			{
				OFFSET -3.470700 6.669187 -0.816635 
				CHANNELS 3 Yrotation Zrotation Xrotation
				JOINT rShldr
				{
					OFFSET -3.198488 0.000000 0.000000 
					CHANNELS 3 Zrotation Yrotation Xrotation
					JOINT rForeArm
					{
						OFFSET -10.139888 0.000000 0.000000 
						CHANNELS 3 Yrotation Zrotation Xrotation
						JOINT rHand
						{
							OFFSET -8.370511 0.000000 0.000000 
							CHANNELS 3 Zrotation Yrotation Xrotation
							End Site
							{
								OFFSET -4.083176 0.000000 0.000000 
							}
						}
					}
				}
			}
		}
	}
	JOINT lThigh
	{
		OFFSET 5.308129 -1.633274 1.361059 
		CHANNELS 3 Xrotation Zrotation Yrotation
		JOINT lShin
		{
			OFFSET -2.041588 -20.007561 0.000000 
			CHANNELS 3 Xrotation Zrotation Yrotation
			JOINT lFoot
			{
				OFFSET 0.000000 -19.190928 -1.224953 
				CHANNELS 3 Xrotation Yrotation Zrotation
				End Site
				{
					OFFSET 0.000000 -2.449906 4.627600 
				}
			}
		}
	}
	JOINT rThigh
	{
		OFFSET -5.308129 -1.633274 1.361059 
		CHANNELS 3 Xrotation Zrotation Yrotation
		JOINT rShin
		{
			OFFSET 2.041588 -20.007561 0.000000 
			CHANNELS 3 Xrotation Zrotation Yrotation
			JOINT rFoot
			{
				OFFSET 0.000000 -19.190928 -1.224953 
				CHANNELS 3 Xrotation Yrotation Zrotation
				End Site
				{
					OFFSET 0.000000 -2.449906 4.627600 
				}
			}
		}
	}
}
MOTION
Frames: 15
Frame Time: 0.011111
36.778446 53.167473 39.797325 3.142647 0.351734 -93.565117 23.009048 1.917032 4.219060 -19.680557 2.592288 1.255747 -10.021932 -2.359279 0.731456 15.973318 1.576960 1.239641 2.971642 -4.490881 1.927035 -31.176668 -28.558731 65.044182 -44.611408 6.264941 6.053730 8.524705 12.647240 -74.378311 -4.704987 0.510038 2.448925 40.788597 27.144775 12.541506 35.082375 -2.834156 2.754396 -8.534408 -12.637552 4.759624 -0.216136 14.474364 7.265455 26.576077 -5.514956 -4.386714 -23.537788 -2.272377 -3.388652 -0.038792 -12.174883 1.010768 26.358997 5.501934 4.364618 -24.923983 -6.721979 -0.554800 
36.777187 53.169670 39.801411 3.309090 0.336847 -93.546455 23.032961 2.173191 4.338443 -19.651731 2.494044 1.267349 -10.000963 -2.333633 0.765121 15.865579 1.465955 1.300668 2.971642 -4.490881 1.927035 -31.066360 -28.744053 65.206131 -44.549595 6.246314 6.036721 8.524705 12.647240 -74.759163 -4.704987 0.510038 2.448925 41.175964 27.304489 7.877647 35.132259 -2.854831 2.765333 -8.534408 -12.637552 -0.621235 -0.254774 14.639331 7.125593 26.616150 -5.510724 -4.408720 -23.603386 -2.150745 -3.324337 0.068653 -11.974645 1.108769 26.237177 5.512465 4.355511 -24.879213 -6.925042 -0.627573 
36.773727 53.168411 39.806755 3.282517 0.334829 -93.504662 23.054153 2.198071 4.298485 -19.632288 2.474033 1.258528 -10.059847 -2.370994 0.776103 15.904640 1.465174 1.301345 2.971642 -4.490881 1.927035 -30.956453 -28.773121 65.070427 -44.642097 6.274833 6.071465 8.524705 12.647240 -75.149788 -4.704987 0.510038 2.448925 40.747593 27.116131 12.431502 35.381020 -2.959487 2.850323 -8.534408 -12.637552 3.451031 -0.225787 14.581317 6.866484 26.576584 -5.510583 -4.395473 -23.609358 -2.111810 -3.288518 0.136830 -12.040561 0.914444 26.157642 5.512343 4.338775 -24.829268 -6.795547 -0.550501 
36.766502 53.175957 39.814297 3.265019 0.296133 -93.536476 23.064598 2.227391 4.301834 -19.612894 2.444262 1.249739 -9.872620 -2.449389 0.844738 15.565620 1.618220 1.456359 2.971642 -4.490881 1.927035 -30.976475 -28.753628 64.436409 -44.713650 6.292016 6.088854 8.524705 12.647240 -75.452522 -4.704987 0.510038 2.448925 40.759876 27.223373 11.953637 35.430943 -2.979966 2.861492 -8.534408 -12.637552 2.708843 -0.137698 14.542515 6.918628 26.525190 -5.520156 -4.383443 -23.518536 -2.123653 -3.304489 0.225259 -12.019279 1.249151 26.085541 5.518719 4.363210 -24.923527 -7.038207 -0.682776 
36.763042 53.175331 39.814610 3.199225 0.294677 -93.556992 23.051075 2.170278 4.313035 -19.574205 2.365325 1.261471 -9.742590 -2.334527 0.884644 15.272244 1.493367 1.554421 2.971642 -4.490881 1.927035 -31.056328 -28.763563 63.438190 -44.755051 6.306839 6.105087 8.524705 12.647240 -75.677139 -4.704987 0.510038 2.448925 40.442783 27.033060 16.567844 35.779602 -3.124769 2.979709 -8.534408 -12.637552 7.376812 -0.098173 14.438402 6.755704 26.505247 -5.520077 -4.381670 -23.567442 -1.875619 -3.204525 0.225279 -12.132278 1.004494 26.066208 5.518713 4.342035 -24.833380 -6.820219 -0.566539 
36.759586 53.183502 39.817436 3.092373 0.280303 -93.509354 23.030485 2.105333 4.235994 -19.506008 2.324730 1.254630 -9.791285 -2.267801 0.866888 15.213465 1.381050 1.512225 2.971642 -4.490881 1.927035 -31.166105 -28.783319 62.348488 -44.796238 6.322236 6.132164 8.524705 12.647240 -75.765030 -4.704987 0.510038 2.448925 40.965382 27.386089 12.058884 35.580254 -3.042390 2.914713 -8.534408 -12.637552 3.031108 -0.059152 14.284863 6.322443 26.444744 -5.519954 -4.394866 -23.690920 -1.557890 -3.050189 0.234426 -12.197438 1.286555 26.025774 5.522830 4.329697 -25.026623 -6.978076 -0.684368 
36.755817 53.170612 39.811783 3.150914 0.352149 -93.570786 22.922859 2.181700 4.315507 -19.418270 2.283753 1.268003 -9.781324 -2.285594 0.879138 15.202360 1.352212 1.522500 2.971642 -4.490881 1.927035 -31.335773 -28.812941 61.134033 -44.888794 6.350357 6.166137 8.524705 12.647240 -75.657608 -4.704987 0.510038 2.448925 40.577026 27.177454 17.283829 36.038834 -3.226096 3.058313 -8.534408 -12.637552 8.939311 -0.107577 14.365268 6.404079 26.433569 -5.529499 -4.376686 -23.728333 -1.574401 -3.061843 0.117226 -12.191779 0.984463 26.046675 5.521398 4.311636 -24.902925 -6.637044 -0.509148 
36.751106 53.179413 39.803299 3.164334 0.423357 -93.658638 22.830326 2.133922 4.446312 -19.437660 2.313541 1.306244 -9.870273 -2.298394 0.858134 15.406885 1.316471 1.478146 2.971642 -4.490881 1.927035 -31.575504 -28.774307 59.712021 -45.063469 6.400637 6.227234 8.524705 12.647240 -75.276741 -4.704987 0.510038 2.448925 41.045822 27.365238 13.289221 35.979065 -3.206619 3.045853 -8.534408 -12.637552 6.068218 -0.147236 14.392720 6.680618 26.403662 -5.529330 -4.373943 -23.657717 -1.586567 -3.079085 0.048947 -12.067012 1.676975 26.056343 5.521410 4.322225 -25.160530 -7.092458 -0.758428 
36.754559 53.180988 39.802982 3.118992 0.412170 -93.659737 22.885090 2.058491 4.501883 -19.486359 2.344020 1.333501 -9.901613 -2.363891 0.822178 15.493998 1.316284 1.378934 2.971642 -4.490881 1.927035 -31.875086 -28.755247 58.175037 -45.310402 6.474356 6.323234 8.524705 12.647240 -74.446663 -4.704987 0.510038 2.448925 41.358261 27.320988 11.956196 36.178638 -3.287937 3.112064 -8.534408 -12.637552 5.990093 -0.147646 14.366651 6.906317 26.425434 -5.519878 -4.373678 -23.556324 -1.890861 -3.202614 0.049277 -12.123775 1.643783 26.088125 5.512017 4.322871 -25.198305 -7.018180 -0.723686 
36.756126 53.182240 39.805183 3.274857 0.416570 -93.639351 22.917349 2.282929 4.620346 -19.467583 2.197083 1.334589 -10.020822 -2.334961 0.756897 15.511873 1.232638 1.251405 2.971642 -4.490881 1.927035 -32.364235 -28.824245 55.570831 -45.392555 6.496204 6.350593 8.524705 12.647240 -74.065804 -4.704987 0.510038 2.448925 41.891464 27.663485 9.049337 35.899155 -3.172478 3.020341 -8.534408 -12.637552 4.896343 -0.186404 14.547589 6.817170 26.454727 -5.519941 -4.395741 -23.576921 -2.055370 -3.262838 0.088618 -11.987796 1.502841 26.075878 5.518708 4.352621 -25.156563 -6.885849 -0.679317 
36.752674 53.173759 39.805809 3.403497 0.449530 -93.624947 22.890436 2.448779 4.679768 -19.409630 2.068766 1.336953 -10.284931 -2.165748 0.696262 15.733351 0.949280 1.114556 2.971642 -4.490881 1.927035 -33.013229 -28.883411 52.367039 -45.463993 6.513114 6.378346 8.524705 12.647240 -73.626358 -4.704987 0.510038 2.448925 42.102650 27.610935 10.580954 36.358475 -3.362122 3.171945 -8.534408 -12.637552 9.017436 -0.263808 14.657497 6.463545 26.525181 -5.520193 -4.383451 -23.727806 -1.579096 -3.064878 0.127631 -11.874532 1.083674 25.997971 5.508499 4.343388 -24.816328 -6.893708 -0.602978 
36.749218 53.171558 39.804867 3.408283 0.459690 -93.633171 22.835081 2.489117 4.638029 -19.419243 2.098279 1.326802 -10.233707 -2.088947 0.738074 15.771899 0.785495 1.177344 2.971642 -4.490881 1.927035 -33.712284 -28.717670 49.550674 -45.814636 6.616524 6.510356 8.524705 12.647240 -72.493546 -4.704987 0.510038 2.448925 42.210617 27.911814 10.796988 36.188984 -3.294609 3.108923 -8.534408 -12.637552 12.201031 -0.332644 14.654193 6.459205 26.616138 -5.510783 -4.408732 -23.736813 -1.491671 -3.020515 0.166612 -11.854288 1.083752 25.908684 5.508627 4.316212 -24.686800 -7.070188 -0.640019 
36.751728 53.171871 39.791981 3.515224 0.434843 -93.667488 22.826431 2.643176 4.523438 -19.574959 2.218882 1.271800 -9.740074 -2.098587 0.873898 15.461040 0.698344 1.470104 2.971642 -4.490881 1.927035 -34.630562 -28.297571 46.215076 -46.196350 6.726790 6.662270 8.524705 12.647240 -71.448624 -4.704987 0.510038 2.448925 42.275822 27.666460 12.813139 36.808533 -3.541135 3.310328 -8.534408 -12.637552 17.269388 -0.381568 14.819335 6.575687 26.697317 -5.500220 -4.432789 -23.784365 -1.884589 -3.182792 0.253960 -11.721910 1.198232 25.804873 5.531782 4.291950 -24.739763 -7.060541 -0.638205 
36.754871 53.176903 39.768097 3.693978 0.422899 -93.725113 22.855848 2.805418 4.459128 -19.652531 2.337591 1.229102 -9.355008 -2.039184 0.955645 14.983531 0.530587 1.653355 2.971642 -4.490881 1.927035 -35.518215 -27.896427 43.171333 -46.837112 6.905435 6.906892 8.524705 12.647240 -69.554092 -4.704987 0.510038 2.448925 43.221287 27.873642 7.260955 37.309097 -3.737192 3.474076 -8.534408 -12.637552 15.140484 -0.440101 15.035734 6.516664 26.787676 -5.500528 -4.422255 -23.916008 -1.852740 -3.166168 0.371656 -11.407936 1.601015 25.694944 5.528501 4.301142 -24.738367 -7.607535 -0.859911 
36.759270 53.178791 39.770927 3.800983 0.416266 -93.714531 22.940817 2.931385 4.399392 -19.681749 2.357581 1.198499 -8.991384 -1.914082 0.960176 14.240688 0.437763 1.713744 2.971642 -4.490881 1.927035 -36.215889 -27.573166 41.043701 -47.841602 7.171511 7.295082 8.524705 12.647240 -66.634163 -4.704987 0.510038 2.448925 43.656742 27.894533 7.248497 38.031563 -4.019359 3.718035 -8.534408 -12.637552 19.417826 -0.469123 15.133073 6.501152 26.847509 -5.500598 -4.427526 -23.939999 -1.627494 -3.067736 0.478666 -11.278092 1.646242 25.593294 5.541868 4.265083 -24.550991 -7.952783 -0.934134 
